<?xml version="1.0" standalone="no"?>
<!DOCTYPE svg PUBLIC "-//W3C//DTD SVG 20010904//EN"
 "http://www.w3.org/TR/2001/REC-SVG-20010904/DTD/svg10.dtd">
<svg version="1.0" xmlns="http://www.w3.org/2000/svg"
 width="2458.000000pt" height="939.000000pt" viewBox="0 0 2458.000000 939.000000"
 preserveAspectRatio="xMidYMid meet">
<defs>
  <linearGradient id="logoGradient" x1="0%" y1="0%" x2="100%" y2="0%">
    <stop offset="0%" style="stop-color:#2563eb"/>
    <stop offset="50%" style="stop-color:#6366f1"/>
    <stop offset="100%" style="stop-color:#7c3aed"/>
  </linearGradient>
</defs>
<g transform="translate(0.000000,939.000000) scale(0.100000,-0.100000)"
fill="url(#logoGradient)" stroke="none">
<path d="M4325 9373 c-33 -2 -132 -10 -220 -19 -1516 -149 -2828 -1007 -3540
-2314 -452 -830 -636 -1836 -515 -2826 107 -876 447 -1674 999 -2343 128 -155
407 -435 561 -563 63 -53 171 -136 239 -186 121 -88 125 -90 146 -74 36 29
695 604 695 607 0 1 -64 45 -142 98 -917 617 -1466 1586 -1559 2752 -15 185
-6 609 16 785 131 1057 641 1940 1458 2525 474 339 1014 546 1655 632 162 22
749 25 912 5 459 -57 836 -167 1210 -353 337 -168 609 -361 877 -622 l72 -70
46 39 c246 206 436 343 615 444 52 29 97 55 99 56 8 7 -140 162 -246 257 -422
375 -861 647 -1375 851 -618 244 -1312 355 -2003 319z"/>
<path d="M9410 7884 c-25 -2 -90 -9 -145 -15 -1069 -115 -1984 -755 -2434
-1700 -141 -297 -231 -606 -278 -957 -24 -182 -24 -627 1 -807 68 -497 233
-944 488 -1325 115 -171 95 -164 170 -57 134 190 258 421 332 620 53 142 53
138 6 256 -124 312 -179 642 -167 1001 13 364 86 665 237 976 78 161 268 451
283 434 21 -25 139 -384 177 -543 85 -351 114 -638 107 -1042 -8 -399 -46
-666 -146 -1021 -133 -469 -314 -824 -629 -1234 -87 -113 -349 -379 -492 -499
-564 -474 -1258 -752 -2030 -811 -80 -7 -169 -10 -199 -8 l-54 3 344 306 c476
424 567 520 680 716 290 507 138 1160 -351 1505 -407 287 -973 309 -1396 55
-366 -221 -599 -599 -630 -1023 l-7 -94 437 0 436 0 0 43 c0 145 108 316 241
380 117 58 233 59 354 3 232 -106 267 -412 72 -631 -42 -48 -672 -599 -1460
-1280 l-197 -170 2 -255 3 -255 105 -27 c58 -15 173 -43 255 -63 1461 -339
3001 31 4099 984 54 47 117 102 140 122 l41 36 -80 88 c-183 199 -482 565
-463 565 3 0 44 -51 90 -112 98 -128 254 -313 376 -443 l82 -88 36 34 c61 58
258 279 339 379 42 52 82 94 88 92 7 -2 55 -21 107 -44 199 -85 478 -165 700
-202 203 -33 300 -40 565 -40 218 1 301 5 430 23 636 86 1170 324 1606 715 52
46 104 95 117 108 l23 25 -256 297 -256 296 -94 -84 c-174 -155 -314 -250
-511 -349 -563 -282 -1326 -323 -1895 -102 -52 21 -101 38 -111 38 -13 1 -11
12 18 68 208 415 366 971 429 1514 22 189 31 679 16 871 -46 585 -178 1107
-407 1608 -35 77 -61 143 -57 147 17 14 182 72 301 105 204 56 373 77 617 78
116 0 255 -6 310 -13 518 -65 946 -261 1317 -601 l66 -60 257 297 256 296 -48
50 c-26 27 -93 87 -148 133 -436 367 -946 585 -1553 665 -150 19 -546 33 -662
23z m-2171 -5684 l23 -35 -26 30 c-14 17 -26 34 -26 39 0 11 0 11 29 -34z"/>
<path d="M14805 7859 c-250 -25 -306 -34 -409 -64 -66 -19 -131 -35 -146 -35
-67 0 -364 -116 -574 -223 -904 -463 -1502 -1347 -1611 -2381 -19 -187 -19
-506 0 -693 127 -1201 907 -2179 2045 -2565 706 -239 1499 -220 2197 51 692
270 1264 791 1593 1450 223 447 323 885 323 1411 0 526 -100 963 -322 1410
-150 301 -310 521 -565 775 -256 255 -479 415 -791 569 -167 83 -398 172 -484
188 -31 5 -112 25 -181 44 -107 30 -170 39 -435 64 -170 17 -319 29 -330 29
-11 -1 -150 -14 -310 -30z m660 -783 c848 -123 1508 -662 1779 -1456 96 -278
130 -490 130 -805 0 -232 -9 -328 -51 -530 -153 -740 -651 -1339 -1335 -1605
-277 -108 -537 -154 -863 -153 -225 1 -400 22 -591 72 -769 203 -1351 789
-1555 1565 -63 242 -74 334 -74 646 0 312 11 404 74 646 244 929 1017 1565
1991 1638 99 7 393 -4 495 -18z"/>
<path d="M21583 7800 c-365 -36 -697 -148 -965 -327 -244 -163 -464 -402 -595
-648 l-48 -90 -3 493 -2 492 -425 0 -425 0 0 -2910 0 -2910 425 0 425 0 0
1773 c0 1146 4 1811 10 1882 50 529 298 956 706 1217 260 167 653 263 994 243
754 -44 1228 -462 1372 -1210 21 -108 22 -140 28 -1500 6 -1234 8 -1402 23
-1495 87 -538 330 -825 777 -915 174 -35 465 -30 612 11 l58 17 0 348 c0 308
-2 349 -15 349 -9 0 -58 -5 -109 -10 -163 -19 -310 12 -379 78 -40 37 -72 105
-93 193 -16 68 -18 188 -24 1549 -6 1445 -7 1478 -28 1607 -42 259 -103 462
-202 671 -288 603 -825 980 -1540 1078 -131 18 -455 26 -577 14z"/>
<path d="M13469 1225 c-28 -15 -49 -60 -49 -101 0 -21 5 -24 34 -24 30 0 35 4
41 30 9 41 39 57 68 35 12 -8 37 -27 56 -40 77 -56 171 -9 171 85 0 27 -3 30
-34 30 -29 0 -34 -4 -39 -29 -8 -41 -41 -58 -70 -36 -12 8 -37 27 -56 40 -38
28 -83 31 -122 10z"/>
<path d="M21037 1175 c-20 -35 -37 -67 -37 -70 0 -3 18 -5 39 -5 37 0 43 5 84
58 66 86 65 82 5 82 l-54 0 -37 -65z"/>
<path d="M8434 1034 c-50 -18 -111 -74 -130 -120 -18 -42 -18 -115 0 -157 20
-50 79 -95 200 -152 132 -62 169 -96 169 -154 0 -127 -160 -161 -306 -65 -22
14 -40 24 -41 22 -2 -2 -15 -19 -30 -40 l-27 -36 34 -26 c116 -89 293 -100
395 -25 54 39 82 99 82 174 0 108 -56 168 -220 236 -45 18 -99 48 -121 67 -34
29 -39 39 -39 75 1 76 53 117 146 117 49 0 74 -6 118 -29 l56 -30 25 42 25 42
-23 17 c-69 54 -222 74 -313 42z"/>
<path d="M9399 1031 c-194 -62 -308 -263 -265 -468 18 -89 45 -143 103 -204
179 -192 492 -165 633 53 68 104 87 248 51 370 -33 106 -150 219 -264 253 -68
20 -188 18 -258 -4z m258 -103 c177 -83 228 -320 104 -484 -51 -67 -141 -114
-220 -114 -88 0 -147 25 -212 89 -65 65 -92 132 -93 226 -1 227 222 377 421
283z"/>
<path d="M12433 1035 c-235 -73 -344 -345 -233 -582 47 -102 150 -188 250
-208 64 -12 71 -16 66 -33 -20 -68 -19 -70 15 -74 42 -4 62 -34 35 -54 -11 -8
-35 -14 -53 -14 -30 0 -33 -3 -33 -31 l0 -31 62 4 c51 4 65 9 85 32 30 36 30
80 -2 111 -13 14 -31 25 -40 25 -11 0 -15 7 -13 22 2 19 13 24 68 35 75 15
151 50 197 90 l33 28 -28 37 -29 37 -49 -35 c-66 -47 -141 -68 -223 -62 -81 6
-133 31 -190 93 -70 76 -97 170 -80 279 13 78 38 124 97 178 102 91 254 99
383 19 l45 -28 22 33 c12 19 22 38 22 43 0 18 -74 61 -139 81 -74 23 -203 26
-268 5z"/>
<path d="M13485 1037 c-117 -39 -198 -110 -248 -215 -30 -63 -32 -74 -32 -178
0 -107 1 -112 37 -186 45 -91 103 -147 196 -191 61 -29 75 -32 167 -32 92 0
106 3 167 32 93 44 151 100 196 191 36 74 37 79 37 186 0 104 -2 115 -32 178
-40 86 -106 151 -191 191 -58 27 -80 32 -162 34 -59 2 -110 -2 -135 -10z m252
-113 c99 -48 154 -136 161 -259 5 -108 -21 -179 -92 -250 -140 -141 -363 -104
-461 76 -22 42 -30 70 -33 129 -5 90 8 142 51 206 83 124 238 164 374 98z"/>
<path d="M15408 1040 c-51 -15 -100 -53 -129 -99 -54 -84 -35 -200 42 -260 14
-11 78 -45 142 -75 129 -62 167 -97 167 -152 0 -128 -150 -165 -295 -73 l-49
31 -18 -24 c-37 -46 -39 -54 -15 -76 12 -11 49 -33 82 -49 51 -24 73 -28 150
-28 99 0 145 16 197 72 55 57 74 155 44 226 -21 52 -96 110 -195 152 -117 49
-157 76 -171 119 -9 27 -8 41 4 70 34 81 154 102 260 47 l56 -30 21 41 21 42
-28 23 c-57 46 -204 68 -286 43z"/>
<path d="M16885 1036 c-213 -68 -327 -279 -270 -501 76 -291 414 -399 667
-212 34 25 35 31 2 74 l-25 33 -32 -24 c-66 -49 -120 -69 -198 -74 -66 -4 -84
-1 -130 20 -78 36 -114 71 -151 146 -30 60 -33 75 -33 152 1 134 53 223 162
276 46 23 69 28 134 28 69 0 86 -4 152 -37 41 -20 77 -37 80 -37 6 0 47 64 47
72 0 12 -84 59 -139 78 -70 23 -202 26 -266 6z"/>
<path d="M17914 1031 c-189 -69 -298 -253 -266 -447 42 -252 282 -408 519
-336 123 38 224 132 269 252 27 70 24 229 -5 303 -32 80 -114 168 -199 209
-59 29 -76 33 -166 35 -78 2 -112 -2 -152 -16z m256 -102 c60 -27 124 -91 152
-153 33 -75 32 -191 -3 -266 -35 -74 -67 -110 -131 -145 -47 -27 -62 -30 -138
-30 -99 0 -140 17 -207 87 -63 65 -87 126 -87 223 0 94 20 149 80 214 85 95
215 122 334 70z"/>
<path d="M24227 1036 c-92 -34 -147 -110 -147 -205 0 -98 46 -147 211 -224
136 -64 169 -96 169 -161 0 -121 -154 -155 -295 -65 l-49 31 -18 -24 c-40 -50
-40 -55 -5 -82 68 -52 125 -70 222 -71 83 0 94 3 145 31 44 25 61 42 83 85 25
46 28 63 25 115 -6 104 -61 159 -229 229 -132 55 -175 108 -145 180 34 80 154
101 259 46 l56 -29 20 34 c12 19 21 41 21 49 0 7 -26 26 -57 41 -46 23 -73 29
-142 31 -56 2 -99 -2 -124 -11z"/>
<path d="M10340 640 l0 -400 230 0 230 0 0 50 0 50 -180 0 -180 0 0 350 0 350
-50 0 -50 0 0 -400z"/>
<path d="M11142 743 l3 -298 29 -58 c88 -180 380 -212 519 -57 68 75 70 88 74
418 l4 292 -55 0 -55 0 -3 -293 -3 -294 -27 -40 c-16 -24 -44 -49 -70 -62 -81
-39 -210 -21 -260 35 -44 50 -48 80 -48 374 l0 280 -56 0 -55 0 3 -297z"/>
<path d="M14410 640 l0 -400 240 0 240 0 0 50 0 50 -185 0 -185 0 0 130 0 130
140 0 140 0 0 45 0 45 -140 0 -140 0 0 130 0 130 175 0 175 0 0 45 0 45 -230
0 -230 0 0 -400z"/>
<path d="M18860 640 l0 -400 50 0 50 0 2 318 3 317 37 -65 c21 -36 115 -177
210 -315 l173 -250 53 -3 52 -3 0 400 0 401 -50 0 -50 0 0 -317 -1 -318 -23
40 c-13 22 -109 165 -213 317 l-188 278 -52 0 -53 0 0 -400z"/>
<path d="M19840 995 l0 -45 135 0 135 0 2 -352 3 -353 53 -3 52 -3 0 355 0
356 140 0 140 0 0 45 0 45 -330 0 -330 0 0 -45z"/>
<path d="M20842 647 c-78 -216 -142 -396 -142 -400 0 -4 24 -7 53 -7 l52 0 40
115 40 115 155 0 155 0 39 -115 39 -115 53 0 c30 0 54 3 54 8 0 4 -63 182
-140 396 -77 214 -140 390 -140 392 0 2 -26 4 -58 4 l-59 0 -141 -393z m208
265 c0 -9 25 -89 55 -177 30 -88 55 -163 55 -167 0 -5 -54 -8 -120 -8 -66 0
-120 4 -120 8 0 5 25 80 55 168 30 87 55 167 55 177 0 9 5 17 10 17 6 0 10 -8
10 -18z"/>
<path d="M21740 639 l0 -401 178 3 c171 4 179 5 235 33 66 32 100 75 116 145
20 90 -20 191 -91 227 l-30 16 35 36 c44 45 57 78 57 143 0 65 -19 109 -65
146 -53 44 -102 53 -279 53 l-156 0 0 -401z m324 297 c18 -8 41 -24 50 -37 22
-32 21 -106 -4 -146 -25 -42 -72 -55 -180 -51 l-85 3 -3 109 c-1 61 0 116 2
123 7 18 175 18 220 -1z m33 -339 c88 -46 89 -197 2 -243 -20 -10 -62 -14
-144 -14 l-115 0 0 133 c0 74 3 137 8 141 14 15 215 1 249 -17z"/>
<path d="M22680 640 l0 -400 240 0 240 0 0 50 0 50 -185 0 -185 0 0 130 0 130
145 0 145 0 0 45 0 45 -145 0 -145 0 0 130 0 130 175 0 175 0 0 45 0 45 -230
0 -230 0 0 -400z"/>
<path d="M23560 640 l0 -400 55 0 55 0 0 400 0 400 -55 0 -55 0 0 -400z"/>
</g>
</svg>
